<svg width="64" height="64" viewBox="0 0 64 64" xmlns="http://www.w3.org/2000/svg" fill-rule="evenodd" clip-rule="evenodd" stroke-linejoin="round" stroke-miterlimit="2">
  <path d="M54.667,0H9.333C4.179,0,0,4.179,0,9.333v45.334C0,59.821,4.179,64,9.333,64h45.334C59.821,64,64,59.821,64,54.667V9.333
    C64,4.179,59.821,0,54.667,0z M60,54.667c0,2.935-2.399,5.333-5.333,5.333H9.333C6.399,60,4,57.601,4,54.667V9.333
    C4,6.399,6.399,4,9.333,4h45.334C57.601,4,60,6.399,60,9.333V54.667z"/>
  <path d="M21.333,16h21.334c1.105,0,2,0.895,2,2s-0.895,2-2,2H21.333c-1.105,0-2-0.895-2-2S20.228,16,21.333,16z"/>
  <path d="M21.333,32h21.334c1.105,0,2,0.895,2,2s-0.895,2-2,2H21.333c-1.105,0-2-0.895-2-2S20.228,32,21.333,32z"/>
  <path d="M28.667,46H42c1.105,0,2,0.895,2,2s-0.895,2-2,2H28.667c-1.105,0-2-0.895-2-2S27.562,46,28.667,46z"/>
  <path d="M25.333,24c0-1.105,0.895-2,2-2s2,0.895,2,2s-0.895,2-2,2S25.333,25.105,25.333,24z"/>
  <path d="M25.333,40c0-1.105,0.895-2,2-2s2,0.895,2,2s-0.895,2-2,2S25.333,41.105,25.333,40z"/>
</svg>
